<?xml version="1.0" encoding="UTF-8" standalone="no"?>
<!-- Created with Inkscape (http://www.inkscape.org/) -->
<svg
   xmlns:i="http://ns.adobe.com/AdobeIllustrator/10.0/"
   xmlns:dc="http://purl.org/dc/elements/1.1/"
   xmlns:cc="http://creativecommons.org/ns#"
   xmlns:rdf="http://www.w3.org/1999/02/22-rdf-syntax-ns#"
   xmlns:svg="http://www.w3.org/2000/svg"
   xmlns="http://www.w3.org/2000/svg"
   xmlns:sodipodi="http://sodipodi.sourceforge.net/DTD/sodipodi-0.dtd"
   xmlns:inkscape="http://www.inkscape.org/namespaces/inkscape"
   width="256"
   height="256"
   id="svg5637"
   sodipodi:version="0.32"
   inkscape:version="0.46"
   version="1.0"
   sodipodi:docname="opensuse.svg"
   inkscape:output_extension="org.inkscape.output.svg.inkscape">
  <defs
     id="defs5639">
    <inkscape:perspective
       sodipodi:type="inkscape:persp3d"
       inkscape:vp_x="0 : 526.18109 : 1"
       inkscape:vp_y="0 : 1000 : 0"
       inkscape:vp_z="744.09448 : 526.18109 : 1"
       inkscape:persp3d-origin="372.04724 : 350.78739 : 1"
       id="perspective5645" />
  </defs>
  <sodipodi:namedview
     id="base"
     pagecolor="#ffffff"
     bordercolor="#666666"
     borderopacity="1.0"
     gridtolerance="10000"
     guidetolerance="10"
     objecttolerance="10"
     inkscape:pageopacity="0.0"
     inkscape:pageshadow="2"
     inkscape:zoom="0.75915493"
     inkscape:cx="214.28571"
     inkscape:cy="175.71429"
     inkscape:document-units="px"
     inkscape:current-layer="layer1"
     showgrid="false"
     inkscape:window-width="640"
     inkscape:window-height="676"
     inkscape:window-x="0"
     inkscape:window-y="1" />
  <metadata
     id="metadata5642">
    <rdf:RDF>
      <cc:Work
         rdf:about="">
        <dc:format>image/svg+xml</dc:format>
        <dc:type
           rdf:resource="http://purl.org/dc/dcmitype/StillImage" />
      </cc:Work>
    </rdf:RDF>
  </metadata>
  <g
     inkscape:label="Layer 1"
     inkscape:groupmode="layer"
     id="layer1">
    <g
       id="g10770"
       transform="matrix(2.4500196,0,0,2.4500196,-3929.0001,-5232.8849)"
       inkscape:export-filename="/home/bruce/Desktop/rabbitvcs/images/systems/suse.png"
       inkscape:export-xdpi="61.779999"
       inkscape:export-ydpi="61.779999">
      <path
         style="fill:#6eb927"
         i:knockout="Off"
         d="M 1693.1767,2174.3176 L 1693.1767,2174.3176 C 1691.1047,2174.2426 1689.4797,2172.4956 1689.5457,2170.4186 C 1689.5787,2169.4146 1690.0087,2168.4866 1690.7387,2167.8006 C 1691.4687,2167.1176 1692.4277,2166.7606 1693.4317,2166.7986 C 1695.5057,2166.8706 1697.1327,2168.6126 1697.0647,2170.6916 C 1697.0317,2171.6946 1696.6097,2172.6196 1695.8767,2173.3086 C 1695.1417,2173.9936 1694.1847,2174.3486 1693.1767,2174.3176 L 1693.1767,2174.3176 z M 1694.0477,2170.9096 C 1694.9717,2170.9096 1695.7197,2170.4106 1695.7197,2169.7956 C 1695.7197,2169.1816 1694.9717,2168.6836 1694.0477,2168.6836 C 1693.1277,2168.6836 1692.3797,2169.1816 1692.3797,2169.7956 C 1692.3797,2170.4096 1693.1277,2170.9096 1694.0477,2170.9096"
         id="path3156" />
      <path
         style="fill:#6eb927;fill-rule:evenodd"
         i:knockout="Off"
         clip-rule="evenodd"
         d="M 1650.3117,2196.4076 L 1650.4457,2196.3946 L 1650.4697,2196.2336 C 1650.4337,2196.1086 1650.3537,2195.9956 1650.2257,2194.4276 C 1650.1187,2193.0406 1649.9017,2189.2396 1651.8157,2187.3526 C 1652.5567,2186.6176 1653.6927,2185.9616 1654.5847,2185.7516 C 1658.2517,2184.8556 1662.5517,2185.4756 1666.6147,2190.1756 C 1668.7167,2192.6056 1669.7437,2193.7126 1670.2597,2194.2096 L 1670.4377,2194.3716 L 1670.6507,2194.5286 C 1670.8207,2194.6226 1677.6387,2197.7606 1677.6387,2197.7606 L 1677.7777,2197.7266 L 1677.7797,2197.5806 C 1677.7367,2197.5296 1673.4597,2192.0036 1674.2177,2187.4526 C 1674.8197,2183.8276 1677.7057,2184.1536 1681.6947,2184.6056 C 1682.9977,2184.7546 1684.4837,2184.9266 1686.0167,2184.9596 C 1690.3037,2184.9856 1694.9227,2184.1986 1697.7707,2182.9536 C 1699.6107,2182.1506 1700.7847,2181.6196 1701.5207,2180.9496 C 1701.7867,2180.7306 1701.9227,2180.3726 1702.0657,2179.9916 L 1702.1657,2179.7356 C 1702.2847,2179.4276 1702.4587,2178.7716 1702.5347,2178.4156 C 1702.5697,2178.2566 1702.5857,2178.0876 1702.4757,2178.0016 L 1702.0797,2178.0746 C 1700.8337,2178.8256 1697.7087,2180.2506 1694.7847,2180.3076 C 1691.1597,2180.3826 1683.8587,2176.6616 1683.0957,2176.2686 L 1683.0237,2176.1816 C 1682.8417,2175.7456 1681.7487,2173.1546 1681.5137,2172.6066 C 1686.7717,2176.0686 1691.1287,2177.9826 1694.4667,2178.2806 C 1698.1837,2178.6106 1701.0777,2176.5846 1702.3187,2175.7176 C 1702.5607,2175.5556 1702.7447,2175.4226 1702.8187,2175.3936 L 1702.8987,2175.2636 C 1702.6937,2173.9596 1700.7527,2167.6436 1699.2857,2166.1236 C 1698.8797,2165.7096 1698.5537,2165.3036 1697.8967,2164.9196 C 1692.5857,2161.8236 1679.9807,2159.9556 1679.3887,2159.8696 L 1679.2887,2159.8976 L 1679.2517,2159.9876 C 1679.2517,2159.9876 1679.2007,2162.6016 1679.1967,2162.8916 C 1677.9047,2162.4626 1668.5457,2159.4396 1659.7727,2159.1356 C 1652.3337,2158.8726 1641.5007,2157.9126 1627.1427,2166.7376 L 1626.7177,2167.0036 C 1619.9637,2171.2186 1615.3017,2176.4116 1612.8637,2182.4496 C 1612.0997,2184.3476 1611.0697,2188.6356 1612.0857,2192.6676 C 1612.5277,2194.4306 1613.3477,2196.1996 1614.4507,2197.7876 C 1616.9437,2201.3696 1621.1267,2203.7466 1625.6367,2204.1486 C 1631.9977,2204.7156 1636.8197,2201.8586 1638.5317,2196.5076 C 1639.7107,2192.8156 1638.5317,2187.3966 1634.0157,2184.6326 C 1630.3417,2182.3836 1626.3897,2182.8976 1624.0987,2184.4106 C 1622.1077,2185.7296 1620.9807,2187.7766 1621.0007,2190.0276 C 1621.0467,2194.0176 1624.4867,2196.1386 1626.9577,2196.1436 C 1627.6777,2196.1436 1628.3977,2196.0206 1629.2107,2195.7546 C 1629.4987,2195.6656 1629.7747,2195.5576 1630.0727,2195.3726 L 1630.1667,2195.3146 L 1630.2287,2195.2766 L 1630.2047,2195.2886 C 1630.7687,2194.9076 1631.1107,2194.2826 1631.1107,2193.6116 C 1631.1107,2193.4296 1631.0837,2193.2426 1631.0317,2193.0556 C 1630.7417,2192.0476 1629.7437,2191.4366 1628.7087,2191.6226 L 1628.5687,2191.6546 L 1628.3787,2191.7156 L 1628.1037,2191.8076 C 1627.5347,2191.9506 1627.1077,2191.9596 1627.0177,2191.9636 C 1626.7257,2191.9426 1625.3037,2191.5186 1625.3037,2189.9596 L 1625.3037,2189.9416 C 1625.3067,2189.3706 1625.5357,2188.9676 1625.6627,2188.7486 C 1626.1017,2188.0556 1627.3147,2187.3726 1628.9557,2187.5186 C 1631.1027,2187.7026 1632.6507,2188.8036 1633.6757,2190.8826 C 1634.6297,2192.8166 1634.3807,2195.1916 1633.0337,2196.9356 C 1631.6987,2198.6636 1629.3217,2199.3946 1626.1557,2199.0516 C 1622.9647,2198.7006 1620.2687,2196.8636 1618.7577,2194.0046 C 1617.2797,2191.2126 1617.1977,2187.8996 1618.5487,2185.3556 C 1621.7797,2179.2606 1627.8777,2179.3246 1631.2227,2179.8986 C 1636.1747,2180.7576 1641.8037,2185.3266 1643.8037,2190.5986 C 1644.1247,2191.4386 1644.2887,2192.1056 1644.4277,2192.7106 L 1644.6447,2193.6236 L 1650.2367,2196.3546 L 1650.3117,2196.4076 L 1650.3117,2196.4076 z M 1689.6097,2166.6526 L 1689.6097,2166.6526 C 1688.5547,2167.6336 1687.9537,2168.9706 1687.9027,2170.4106 C 1687.8047,2173.3806 1690.1347,2175.8806 1693.1017,2175.9926 C 1694.5507,2176.0406 1695.9197,2175.5316 1696.9727,2174.5456 C 1698.0257,2173.5646 1698.6267,2172.2296 1698.6817,2170.7926 C 1698.7817,2167.8216 1696.4517,2165.3156 1693.4767,2165.2076 C 1692.0377,2165.1596 1690.6627,2165.6696 1689.6097,2166.6526"
         id="path3158" />
      <g
         transform="translate(1607.9427,2158.9716)"
         i:knockout="Off"
         id="g3162">
        <path
           style="fill:#0d5148"
           i:knockout="Off"
           d="M 97.296,44.674 L 97.232,44.674 C 97.154,44.674 97.093,44.61 97.093,44.533 L 97.093,43.551 L 96.876,43.878 C 96.851,43.914 96.806,43.931 96.765,43.931 L 96.738,43.931 C 96.695,43.931 96.652,43.914 96.629,43.878 L 96.408,43.551 L 96.408,44.533 C 96.408,44.609 96.34,44.674 96.263,44.674 L 96.199,44.674 C 96.121,44.674 96.062,44.61 96.062,44.533 L 96.062,43.356 L 95.402,43.356 L 95.402,44.533 C 95.402,44.609 95.332,44.674 95.254,44.674 L 95.192,44.674 C 95.116,44.674 95.053,44.61 95.053,44.533 L 95.053,43.356 L 94.555,43.356 C 94.477,43.356 94.418,43.306 94.418,43.229 L 94.418,43.156 C 94.418,43.073 94.48,43.027 94.555,43.027 L 96.285,43.027 C 96.357,43.027 96.398,43.055 96.422,43.092 L 96.752,43.589 L 97.082,43.092 C 97.109,43.055 97.148,43.027 97.223,43.027 L 97.444,43.027 L 97.444,44.533 C 97.443,44.609 97.373,44.674 97.296,44.674 z"
           id="path3164" />
      </g>
      <path
         style="fill:#0d5148"
         i:knockout="Off"
         d="M 1648.7227,2201.5916 C 1646.3557,2201.5916 1645.0487,2203.5956 1645.0487,2204.9796 L 1645.0487,2206.7576 C 1645.0487,2208.7966 1646.7157,2210.0596 1648.2637,2210.0596 L 1653.6867,2210.0596 C 1654.3687,2210.0596 1654.5097,2210.5076 1654.5097,2210.8826 L 1654.5097,2212.0306 C 1654.5097,2212.1546 1654.4887,2213.2566 1653.6867,2213.2566 L 1646.2857,2213.2566 C 1645.5527,2213.2566 1645.0207,2213.7656 1645.0207,2214.4636 L 1645.0207,2214.7826 C 1645.0207,2215.4786 1645.5517,2215.9886 1646.2857,2215.9886 L 1654.0897,2215.9886 C 1656.1297,2215.9886 1657.4467,2214.5696 1657.4467,2212.3736 L 1657.4467,2210.4536 C 1657.4467,2208.3906 1655.9607,2207.4676 1654.4887,2207.4676 L 1649.1527,2207.4676 C 1648.3457,2207.4676 1647.9827,2206.8676 1647.9827,2206.4416 L 1647.9827,2205.3826 C 1647.9827,2204.7126 1648.4297,2204.3286 1649.2097,2204.3286 L 1655.1177,2204.3286 C 1655.8427,2204.3286 1656.3857,2203.8076 1656.3857,2203.1186 L 1656.3857,2202.8016 C 1656.3857,2202.1136 1655.8307,2201.5916 1655.0917,2201.5916 L 1648.7227,2201.5916 L 1648.7227,2201.5916 z"
         id="path3166" />
      <path
         style="fill:#0d5148"
         i:knockout="Off"
         d="M 1670.9027,2201.5916 C 1670.2037,2201.5916 1669.6367,2202.1606 1669.6367,2202.8606 L 1669.6367,2211.9456 C 1669.6367,2212.6696 1669.0447,2213.2576 1668.3247,2213.2576 L 1664.2037,2213.2576 C 1663.4787,2213.2576 1662.8917,2212.6696 1662.8917,2211.9456 L 1662.8917,2202.8606 C 1662.8917,2202.1616 1662.3257,2201.5916 1661.6237,2201.5916 L 1661.2217,2201.5916 C 1660.5147,2201.5916 1659.9557,2202.1496 1659.9557,2202.8606 L 1659.9557,2212.2896 C 1659.9557,2214.4816 1661.6827,2216.0766 1664.0597,2216.0766 L 1668.4657,2216.0766 C 1670.8447,2216.0766 1672.5707,2214.4816 1672.5707,2212.2896 L 1672.5707,2202.8606 C 1672.5707,2202.1496 1672.0137,2201.5916 1671.3047,2201.5916 L 1670.9027,2201.5916 z"
         id="path3168" />
      <path
         style="fill:#0d5148"
         i:knockout="Off"
         d="M 1678.7977,2201.5916 C 1676.4307,2201.5916 1675.1217,2203.5946 1675.1217,2204.9796 L 1675.1217,2206.7576 C 1675.1217,2208.7966 1676.7917,2210.0596 1678.3367,2210.0596 L 1683.7607,2210.0596 C 1684.4427,2210.0596 1684.5867,2210.5076 1684.5867,2210.8826 L 1684.5867,2212.0306 C 1684.5867,2212.1546 1684.5617,2213.2566 1683.7607,2213.2566 L 1676.3627,2213.2566 C 1675.6287,2213.2566 1675.0947,2213.7656 1675.0947,2214.4636 L 1675.0947,2214.7826 C 1675.0947,2215.4786 1675.6277,2215.9886 1676.3627,2215.9886 L 1684.1617,2215.9886 C 1686.2027,2215.9886 1687.5207,2214.5696 1687.5207,2212.3736 L 1687.5207,2210.4536 C 1687.5207,2208.3906 1686.0387,2207.4676 1684.5637,2207.4676 L 1679.2277,2207.4676 C 1678.4207,2207.4676 1678.0577,2206.8676 1678.0577,2206.4416 L 1678.0577,2205.3826 C 1678.0577,2204.7126 1678.5047,2204.3286 1679.2827,2204.3286 L 1685.1947,2204.3286 C 1685.9177,2204.3286 1686.4627,2203.8076 1686.4627,2203.1186 L 1686.4627,2202.8016 C 1686.4627,2202.1136 1685.9057,2201.5916 1685.1637,2201.5916 L 1678.7977,2201.5916 L 1678.7977,2201.5916 z"
         id="path3170" />
      <path
         style="fill:#0d5148"
         i:knockout="Off"
         d="M 1691.2667,2201.5916 C 1690.5637,2201.5916 1690.0307,2202.1126 1690.0307,2202.8016 L 1690.0307,2214.7826 C 1690.0307,2215.4706 1690.5517,2215.9886 1691.2417,2215.9886 L 1700.7887,2215.9886 C 1701.5227,2215.9886 1702.0547,2215.4786 1702.0547,2214.7826 L 1702.0547,2214.4636 C 1702.0547,2213.7656 1701.5237,2213.2566 1700.7887,2213.2566 C 1700.7887,2213.2566 1693.3197,2213.2566 1692.9667,2213.2566 C 1692.9667,2212.9446 1692.9667,2210.5136 1692.9667,2210.2036 C 1693.3187,2210.2036 1698.6967,2210.2036 1698.6967,2210.2036 C 1699.4287,2210.2036 1699.9647,2209.6926 1699.9647,2208.9926 L 1699.9647,2208.6786 C 1699.9647,2207.9776 1699.4297,2207.4676 1698.6967,2207.4676 C 1698.6967,2207.4676 1693.3177,2207.4676 1692.9667,2207.4676 C 1692.9667,2207.1546 1692.9667,2204.6416 1692.9667,2204.3286 C 1693.3187,2204.3286 1700.3907,2204.3286 1700.3907,2204.3286 C 1701.1227,2204.3286 1701.6567,2203.8186 1701.6567,2203.1186 L 1701.6567,2202.8016 C 1701.6567,2202.1016 1701.1237,2201.5916 1700.3907,2201.5916 L 1691.2667,2201.5916 L 1691.2667,2201.5916 z"
         id="path3172" />
      <path
         id="path3176"
         d="M 1610.1087,2207.2896 C 1608.9147,2207.2896 1607.9427,2208.2226 1607.9427,2209.3676 L 1607.9427,2213.8866 C 1607.9427,2215.0516 1608.8817,2216.0006 1610.0367,2216.0006 L 1612.9607,2216.0006 C 1614.1147,2216.0006 1615.0557,2215.0516 1615.0557,2213.8866 L 1615.0557,2209.3676 C 1615.0557,2208.2216 1614.0837,2207.2896 1612.8887,2207.2896 L 1610.1087,2207.2896 z M 1609.4787,2213.7066 L 1609.4787,2209.5826 C 1609.4787,2209.0976 1609.8747,2208.7016 1610.3607,2208.7016 L 1612.6367,2208.7016 C 1613.1127,2208.7016 1613.5177,2209.1056 1613.5177,2209.5826 L 1613.5177,2213.7066 C 1613.5177,2214.1916 1613.1217,2214.5886 1612.6367,2214.5886 L 1610.3407,2214.5886 C 1609.8577,2214.5886 1609.4787,2214.2006 1609.4787,2213.7066 z"
         i:knockout="Off"
         style="fill:#6eb927" />
      <path
         id="path3178"
         d="M 1621.6727,2207.2366 C 1620.8267,2207.2366 1620.1937,2207.5416 1619.6827,2207.7866 C 1619.3727,2207.9336 1619.1057,2208.0616 1618.8937,2208.0616 C 1618.8007,2208.0616 1618.7207,2208.0206 1618.6787,2207.9516 L 1618.4847,2207.5796 C 1618.4357,2207.4816 1618.2407,2207.2906 1617.9977,2207.2906 L 1617.7107,2207.2906 C 1617.4357,2207.2906 1617.2117,2207.5386 1617.2117,2207.8466 L 1617.2117,2219.3016 C 1617.2117,2219.6616 1617.4937,2219.9446 1617.8547,2219.9446 L 1618.1067,2219.9446 C 1618.4607,2219.9446 1618.7497,2219.6556 1618.7497,2219.3016 L 1618.7497,2215.4996 C 1618.7497,2215.3866 1618.8247,2215.2656 1618.8957,2215.2656 C 1619.1087,2215.2656 1619.3767,2215.3866 1619.6867,2215.5306 C 1620.1967,2215.7636 1620.8307,2216.0536 1621.6747,2216.0536 L 1621.9427,2216.0536 C 1623.4337,2216.0536 1624.3607,2215.2026 1624.3607,2213.8316 L 1624.3607,2209.4576 C 1624.3607,2208.1086 1623.4127,2207.2356 1621.9427,2207.2356 L 1621.6727,2207.2356 L 1621.6727,2207.2366 z M 1618.7487,2213.6176 L 1618.7487,2209.6736 C 1618.7487,2209.1286 1619.1747,2208.7026 1619.7197,2208.7026 L 1621.8527,2208.7026 C 1622.3967,2208.7026 1622.8227,2209.1286 1622.8227,2209.6736 L 1622.8227,2213.6176 C 1622.8227,2214.1526 1622.3887,2214.5896 1621.8527,2214.5896 L 1619.7197,2214.5896 C 1619.1837,2214.5886 1618.7487,2214.1526 1618.7487,2213.6176 z"
         i:knockout="Off"
         style="fill:#6eb927" />
      <path
         id="path3180"
         d="M 1628.6837,2207.2896 C 1627.4887,2207.2896 1626.5157,2208.2226 1626.5157,2209.3676 L 1626.5157,2213.8506 C 1626.5157,2215.0146 1627.4587,2215.9996 1628.5747,2215.9996 L 1631.5887,2215.9996 C 1631.9607,2215.9996 1632.2327,2215.7426 1632.2327,2215.3916 L 1632.2327,2215.1946 C 1632.2327,2214.8416 1631.9617,2214.5886 1631.5887,2214.5886 L 1629.1147,2214.5886 C 1628.4217,2214.5886 1628.0537,2214.2466 1628.0537,2213.5996 C 1628.0537,2213.5996 1628.0537,2212.4696 1628.0537,2212.2886 C 1628.2547,2212.2886 1632.5207,2212.2886 1632.5207,2212.2886 C 1633.2367,2212.2886 1633.6667,2211.8476 1633.6667,2211.1066 L 1633.6667,2209.3676 C 1633.6667,2208.2216 1632.6927,2207.2896 1631.4987,2207.2896 L 1628.6837,2207.2896 L 1628.6837,2207.2896 z M 1628.0537,2209.5656 C 1628.0537,2209.0826 1628.4317,2208.7026 1628.9157,2208.7026 L 1631.2647,2208.7026 C 1631.7497,2208.7026 1632.1257,2209.0826 1632.1257,2209.5656 C 1632.1257,2209.5656 1632.1257,2210.7846 1632.1257,2210.9646 C 1631.9327,2210.9646 1628.2487,2210.9646 1628.0537,2210.9646 C 1628.0537,2210.7836 1628.0537,2209.5656 1628.0537,2209.5656 z"
         i:knockout="Off"
         style="fill:#6eb927" />
      <path
         id="path3182"
         d="M 1639.8727,2207.2366 C 1639.0317,2207.2366 1638.3957,2207.5386 1637.8877,2207.7816 C 1637.5707,2207.9316 1637.2947,2208.0616 1637.0757,2208.0616 C 1636.9747,2208.0616 1636.9367,2208.0496 1636.8627,2207.9186 L 1636.6837,2207.5956 C 1636.5827,2207.3946 1636.4127,2207.2896 1636.1787,2207.2896 L 1635.9267,2207.2896 C 1635.6277,2207.2896 1635.4097,2207.5226 1635.4097,2207.8456 L 1635.4097,2215.3566 C 1635.4097,2215.7176 1635.6927,2216.0016 1636.0527,2216.0016 L 1636.3037,2216.0016 C 1636.6587,2216.0016 1636.9477,2215.7116 1636.9477,2215.3566 L 1636.9477,2209.6726 C 1636.9477,2209.1376 1637.3837,2208.7016 1637.9187,2208.7016 L 1640.0527,2208.7016 C 1640.5877,2208.7016 1641.0227,2209.1376 1641.0227,2209.6726 L 1641.0227,2215.3566 C 1641.0227,2215.7176 1641.3057,2216.0016 1641.6657,2216.0016 L 1641.9177,2216.0016 C 1642.2727,2216.0016 1642.5617,2215.7116 1642.5617,2215.3566 L 1642.5617,2209.4586 C 1642.5617,2208.1096 1641.6127,2207.2366 1640.1427,2207.2366 L 1639.8727,2207.2366 L 1639.8727,2207.2366 z"
         i:knockout="Off"
         style="fill:#6eb927" />
    </g>
  </g>
</svg>
